<svg width="114" height="115" xmlns="http://www.w3.org/2000/svg" xmlns:xlink="http://www.w3.org/1999/xlink" overflow="hidden"><defs><clipPath id="clip0"><rect x="136" y="188" width="114" height="115"/></clipPath></defs><g clip-path="url(#clip0)" transform="translate(-136 -188)"><path d="M57 24.9446C54.3767 24.9446 52.25 27.0713 52.25 29.6946 52.25 32.3179 54.3767 34.4446 57 34.4446 59.6233 34.4446 61.75 32.3179 61.75 29.6946 61.7422 27.0745 59.6201 24.9525 57 24.9446ZM57 32.0696C55.6883 32.0696 54.625 31.0063 54.625 29.6946 54.625 28.3829 55.6883 27.3196 57 27.3196 58.3117 27.3196 59.375 28.3829 59.375 29.6946 59.3763 31.0063 58.3141 32.0707 57.0024 32.072 57.0015 32.072 57.0008 32.072 57 32.072Z" stroke="#FFC000" stroke-width="1.1875" fill="#FFC000" transform="matrix(1 0 0 1.00877 136 188)"/><path d="M93.8125 89.0874 93.8125 85.5 89.0625 85.5 89.0625 48.6875 93.8125 48.6875 93.8125 42.75 99.75 42.75 99.75 40.375 57 14.25 14.25 40.375 14.25 42.75 20.1875 42.75 20.1875 48.6875 24.9375 48.6875 24.9375 85.5 20.1875 85.5 20.1875 89.0874 11.875 95.0249 11.875 99.75 102.125 99.75 102.125 95.0261ZM86.6875 85.5 84.3125 85.5 84.3125 48.6875 86.6875 48.6875ZM32.0625 48.6875 39.1875 48.6875 39.1875 85.5 32.0625 85.5ZM41.5625 48.6875 43.9375 48.6875 43.9375 85.5 41.5625 85.5ZM46.3125 48.6875 53.4375 48.6875 53.4375 85.5 46.3125 85.5ZM55.8125 48.6875 58.1875 48.6875 58.1875 85.5 55.8125 85.5ZM60.5625 48.6875 67.6875 48.6875 67.6875 85.5 60.5625 85.5ZM70.0625 48.6875 72.4375 48.6875 72.4375 85.5 70.0625 85.5ZM74.8125 48.6875 81.9375 48.6875 81.9375 85.5 74.8125 85.5ZM18.8409 40.3524 57 17.0371 95.1591 40.3524C95.1654 40.3545 95.1687 40.3612 95.1667 40.3674 95.1655 40.371 95.1627 40.3738 95.1591 40.375L18.848 40.375C18.8409 40.3741 18.8358 40.3675 18.8367 40.3603 18.8372 40.3573 18.8386 40.3545 18.8409 40.3524ZM22.5625 42.75 91.4375 42.75 91.4375 46.3125 22.5625 46.3125ZM27.3125 48.6875 29.6875 48.6875 29.6875 85.5 27.3125 85.5ZM22.5625 90.3094 22.5625 87.875 91.4375 87.875 91.4375 90.3094 92.4314 91.0219 93.0157 91.4399 20.9843 91.4399 21.5697 91.0219ZM99.75 97.375 14.25 97.375 14.25 96.2493 17.6593 93.8125 96.3466 93.8125 99.75 96.2493Z" stroke="#FFC000" stroke-width="1.1875" fill="#FFC000" transform="matrix(1 0 0 1.00877 136 188)"/></g></svg>